# xmcd
#
# Track frame offsets:
# 150
# 14177
# 33776
# 45245
# 69640
# 84996
# 102422
# 120655
# 133417
# 145506
# 162963
# 178151
# 189759
# 207098
# 216970
# 233639
# 249626
# 268981
# 282343
#
# Disc length: 3982 seconds
#
#
# Revision: 1
# Processed by: cddbd v1.5.2PL0 Copyright (c) Steve Scherf et al.
# Submitted via: FreeRIP 2.945 
#
DISCID=150f8c13
DTITLE=Pavel Bobek - Ctyricet hitu od [A] do [Z] CD1
DYEAR=2006
DGENRE=Country
TTITLE0=Amando ma jedina
TTITLE1=Bowery street
TTITLE2=Country boy
TTITLE3=Dalnicni hlidka
TTITLE4=Dite kvetin
TTITLE5=Divoka ruye
TTITLE6=Hejno padlych andelu
TTITLE7=Horke leto v City
TTITLE8=Houston
TTITLE9=Ja byval hodny taty syn
TTITLE10=Ja ti zpivam
TTITLE11=Kluk s tvari mou
TTITLE12=Lasko, me ubyva sil
TTITLE13=Ma divka "N"
TTITLE14=Me zari
TTITLE15=Motylek rano
TTITLE16=Muj rodny dum
TTITLE17=Muz, ktery nebyl nikdy in
TTITLE18=Muz na konci sveta
EXTD=
EXTT0=
EXTT1=
EXTT2=
EXTT3=
EXTT4=
EXTT5=
EXTT6=
EXTT7=
EXTT8=
EXTT9=
EXTT10=
EXTT11=
EXTT12=
EXTT13=
EXTT14=
EXTT15=
EXTT16=
EXTT17=
EXTT18=
PLAYORDER=
